<?xml version="1.0" encoding="utf-8"?>
<!-- Generator: Adobe Illustrator 25.4.1, SVG Export Plug-In . SVG Version: 6.00 Build 0)  -->
<svg version="1.1" id="Layer_1" xmlns="http://www.w3.org/2000/svg" xmlns:xlink="http://www.w3.org/1999/xlink" x="0px" y="0px"
	 viewBox="0 0 259.5 81.7" style="enable-background:new 0 0 259.5 81.7;" xml:space="preserve">
<style type="text/css">
	.st0{fill:#FFFFFF;}
	.st1{fill:#1E407C;}
	.st2{fill:#96BEE6;}
</style>
<g id="Layer_2_00000060746982341203001510000006930233992927549568_">
	<g id="Layer_1-2">
		<path class="st0" d="M37,81.7C20.6,71.9,0,57.8,0,32.8V6.4C7.6,3.6,19.2,0,37,0c18,0,30.3,3.9,37,6.4v26.4
			C74,58,52.6,72.5,37,81.7z"/>
		<path class="st1" d="M48.1,47.5c0-0.6,0.5-1.4,0.5-2.2s-1.1-1.2-2-1.3c-1.8-0.3-2.5-0.2-2.5-0.6s0.2-0.6,0.6-1.1
			c0.6-0.6,1.4-1,2.3-1.1c0.9-0.2,1.9-0.2,2.9-0.2c0.9,0,1.9,0.1,2.8,0.3c1.1,0.2,1.3,0.7,1.3,1.2V43c0,0.5-0.4,0.8-1.2,1l-0.6,0.1
			c-0.6,0.1-1.3,0.2-1.5,1c-0.5,1.5-1.5,2.8-2.2,2.7C48.3,47.8,48.1,47.7,48.1,47.5z M49.8,22.5c-0.1,0-0.3-0.1-0.3-0.4
			s0.2-0.5,0.6-1.1c0.9-1.2,2.2-2.8,2.7-2.8c0.2,0,0.4,0.2,0.7,0.7c0.2,0.4,0.3,0.9,0.3,1.4c0,1.5-0.5,2.9-1.5,4.1
			C51.5,23.7,50.7,23,49.8,22.5L49.8,22.5z M22.6,25.5c0.4,0,0.7-0.3,1.4-1c1.4-1.6,2.8-1.8,2.8-2.4c0-0.3-0.2-0.6-0.4-0.9
			c-1.1-1.7-2.1-3.5-3-5.3c-0.3-0.6-0.7-1-1.1-1c-0.5,0-1.1,0.6-1.4,1.1c-0.5,0.7-0.8,1.5-0.9,2.3c0,1.5,0.3,3.1,0.8,4.5
			C21.2,24.3,21.9,25.5,22.6,25.5z M39.5,30.9c-0.2-1.5-1.5-2.5-3-2.4c-1.5,0-2.8,0.9-3.3,2.3c0.4,1.1,1.3,1.8,2.4,2.1
			C35.8,33,36,33,36,33.2s-0.3,0.4-0.8,0.4c-1.3,0.1-2.6-0.4-3.4-1.4c-0.6,0.1-1.1,0.2-1.7,0.3c-0.6,0-0.8-0.4-0.8-0.9
			c0-0.4,0.1-0.7,0.3-1.1l0.3-0.6c0.5-1.2,1.3-2.1,2.4-2.8l1-0.6c0.8-0.5,1.8-0.7,2.8-0.7h0.8c1-0.1,1.9,0.3,2.6,0.9
			c1.2,1,1.9,1.6,1.9,2.3c0.1,0.9-0.2,1.7-0.7,2.4c-0.5,0.7-1.2,1.1-2,1.3c-0.2,0-0.2-0.1-0.2-0.2s0.1-0.2,0.3-0.3
			C39.1,31.9,39.3,31.5,39.5,30.9z M47.6,56.9c-1.2,0.2-2.5,0.3-3.7,0.2c-4.2,0-4.9-1-4.9-1.8c0-1.4,6-2.3,8.4-2.3s3.3,0.7,3.3,1.3
			S49.6,56.4,47.6,56.9z M23.4,69.2c4.3,3.3,8.9,6.4,13.6,9.2l0,0c0-4.1-0.1-6.5,2.7-9.4l3.3-3.5c0.8-0.8,1.4-1.4,1.8-1.4
			s0.4,0.1,0.4,0.5c0.1,1.2,0.4,2.3,1,3.3c0.6,1.3,1.7,2.1,3.1,2.4c11.9-9,21.9-20.7,21.9-37.5V8.4c-2.9-1-15-5.6-34.2-5.6
			S5.8,7.4,2.8,8.4v24.4c0,6.8,1.7,13.5,5.1,19.4c0.3-3.4,2.6-5,2.6-8.3c0-2.3-0.7-3.8-0.7-5.7c0-3.5,4.8-10.7,7.2-13.7
			c0.1-0.1,0.2-0.3,0.4-0.3c0.2,0,0.3,0.1,0.4,0.3c0.2,0.4,0.4,0.6,0.6,0.6s0.4-0.1,0.4-0.4c-0.5-1.8-0.7-3.7-0.7-5.6
			c0-2.8,0.6-3.4,2.4-5.1c0.6-0.7,1.4-1.1,2.2-1.2c1,0,1.5,0.6,2.2,1.3c1.1,1.1,2.6,3,2.8,3.3c0.1,0.1,0.2,0.2,0.3,0.2
			c0.5,0,0.9-0.1,3.1-0.1c4.3,0,8.7,0.5,12.9,1.6c0.8,0.3,1.5,0.6,2.3,0.9c0.2,0,0.2-0.1,0.2-0.2s-0.4-0.5-0.4-0.8
			c0-0.2,0.1-0.3,0.3-0.4c2.3-1.2,4.2-2.1,6-2.1c1,0,1.5,0.9,2,1.8c0.4,0.8,0.7,1.7,0.7,2.6c0,1.8-0.6,3.5-1.6,4.9
			c0.3,0.4,0.8,0.9,1.1,1.3c0.6,0.7,1,1.5,1.1,2.4c-0.1,0.5-0.2,1-0.3,1.4c0,0.2-0.2,0.6-0.6,0.6s-0.4-0.4-0.4-0.7v-0.2
			c0-1.8-1.3-3.3-3.1-3.6H51c-0.9,0-1.8,0.3-2.4,1c-0.5,0.4-0.7,1.1-0.8,1.7c0.1,0.6,0.3,1.2,0.7,1.7c0.2,0.5,0.8,1.5,1.1,2.1
			c0.2,0.4,0.6,0.6,1,0.7c1,0,1.8-0.1,1.8-0.4c0-0.1,0-0.2-0.2-0.2H52c-1.3,0-2-1.6-2.6-3.1c0.5-0.6,1.2-1,2-1
			c1.1-0.1,2,0.8,2.1,1.9c0,0,0,0.1,0,0.1c0,0.4-0.1,0.8-0.3,1.2c0,0.1-0.1,0.1-0.1,0.2c0,0.2,0.2,0.2,0.6,0.3l0.5,0.1
			c0.4,0.1,0.8,0.5,0.9,0.9l0.4,1.2c0.3,0.8,0.5,1.7,0.5,2.6c0,0.9-0.1,1.7-0.4,2.6c-0.3,0.9-0.5,1.8-0.6,2.8
			c0.1,0.1,0.1,0.3,0.2,0.5c0.3,0.7,0.5,1.4,0.5,2.2v0.8c0,1.2-0.4,2.4-1.2,3.4c-0.5,0.7-1.2,1.6-1.6,2.1c-0.2,0.3-0.6,0.5-1,0.5
			c-0.2,0-0.4-0.1-0.6-0.1l-1-0.2c-0.7-0.2-1.3-0.8-1.4-1.6l-0.2-0.5c-0.2-0.5-0.3-0.9-0.7-0.9s-0.5,0.2-0.7,0.5
			c-0.5,1.1-1.6,1.9-2.8,2.1c-0.5,0.1-1.6,0.3-2.2,0.5c-1.1,0.3-2.3,0.5-3.4,0.6h-0.6c-1.5-0.1-2.8-0.9-3.6-2.1
			c-2.1-2.5-1.9-2.9-2-6.3c0-0.4-0.1-0.8-0.5-0.8s-0.5,0.7-0.6,1.7c-0.1,1.2-0.4,2.5-1,2.5c-0.5,0-0.9-0.1-1.3-0.3l-3.7-1.2
			c-1.4-0.5-2.7-0.8-3.2-2l-0.9-2.2c-0.2-0.4-0.3-0.6-0.5-0.6s-0.5,0.4-0.5,0.8s-0.1,1.3-0.2,1.8c0,1.7-0.6,3.4-1.7,4.7
			c-0.5,0.6-0.9,1.2-1.4,1.9c-1.2,1.6-1.8,3.5-1.6,5.5c0,0.2,0,1.2,0,1.7C15.6,61.8,16.6,63.8,23.4,69.2z"/>
		<path class="st2" d="M55.2,33.7L55.2,33.7l0.4,1.2c0.3,0.8,0.5,1.7,0.5,2.6c0,0.9-0.1,1.7-0.4,2.6c-0.3,0.9-0.5,1.8-0.6,2.8
			c-0.1-0.2-2.2-3.8-2.3-4.1c-0.2-0.3-0.3-0.6-0.3-0.9c0-0.4,0.2-0.6,0.6-0.9c0.3-0.2,0.6-0.4,0.8-0.5c0.8-0.3,1.3-1.1,1.3-1.9
			C55.3,34.3,55.2,34,55.2,33.7z M46.2,39.4c0.1,0.3,0.2,0.5,0.2,0.8c0,0.4-0.1,0.8-0.4,1c-0.2,0.2-0.4,0.3-0.5,0.5
			c-0.3,0.1-0.5,0.3-0.7,0.6c-0.3,0.5-0.6,0.8-0.6,1.1c0,0.1,0,0.2,0.1,0.2c-0.4-0.3-0.6-0.7-0.6-1.2c0-0.4,0.1-0.6,0.1-0.9
			c0-0.3-0.1-0.5-0.1-0.8c-0.6-1.9-1.5-4.2-2.1-5.7s-1.1-2.4-1.8-2.4c-0.4,0-0.7,0.2-1.1,0.2c0.8-0.1,1.5-0.6,2-1.3
			c0.5-0.7,0.8-1.5,0.7-2.4c0-0.4-0.2-0.7-0.4-1c0.8,1,1.5,2.1,2,3.2C44.2,34.1,45.3,37.1,46.2,39.4L46.2,39.4z M15.5,57.8
			c0-0.5,0-1.5,0-1.7c-0.2-2,0.4-3.9,1.6-5.5c0.5-0.7,0.9-1.3,1.4-1.9c1.1-1.3,1.7-3,1.7-4.7c0-0.5,0.1-1.4,0.2-1.8s0.1-0.8,0.5-0.8
			s0.4,0.2,0.5,0.6l0.9,2.2c0.5,1.2,1.8,1.6,3.2,2l3.7,1.2c0.4,0.2,0.9,0.3,1.3,0.3c0.6,0,0.9-1.2,1-2.5c0.1-1,0.3-1.7,0.6-1.7
			s0.5,0.5,0.5,0.8c0.1,3.4-0.1,3.8,2,6.3c0.8,1.2,2.2,2,3.6,2.1c-0.7-0.3-1.1-1-1-1.8v-1.2c0-0.7,0.1-1.3,0.4-1.9
			c0.2-0.3,0.3-0.9,0.5-1.3c0.2-0.4,0.2-0.8,0.1-1.2c-0.1-0.7-0.2-1.4-0.5-2c-0.2-0.6-0.4-1.4-0.7-2.1c-0.8-2.1-1.1-2.6-3.6-3
			l-5.1-0.7c-2.9-0.4-5.1-0.5-6.3-2.5c-1.4-2.3-1.3-5.1-2.6-5.1c-0.6,0-1,0.7-1,1.8s0.4,2.8,0.4,5.9c0,2.7-0.2,3.4-1.8,5.3
			c-0.4,0.5-0.9,1.2-1.3,1.7c-1.1,1.4-1.7,2.3-1.6,3.9C14.5,51.7,14.9,54.8,15.5,57.8z M44.7,68c0.1-1.1,0.6-2.8,0.6-3.6l0,0
			c0-0.4-0.1-0.5-0.4-0.5s-1,0.6-1.8,1.4l-3.3,3.5c-2.8,2.9-2.7,5.3-2.7,9.4l0,0c3.1-1.9,5.9-3.7,8-5.1C44.6,71.5,44.5,69.8,44.7,68
			z"/>
		<path class="st1" d="M246.9,33.5h12.6c-0.1-6.5-3.2-10.2-8.6-10.2S242,27,242,32.7c0,2.2,0.7,9.2,9.8,9.2c2.2,0.1,4.4-0.3,6.5-1.1
			v-3.4c-1.7,0.7-3.6,1.1-5.4,1.1C249.3,38.5,247,36.5,246.9,33.5z M229.1,26.9h2.4V37c0,3,2.2,4.9,5.7,4.9c1.3,0,2.6-0.2,3.8-0.5
			v-3.1c-0.7,0.1-1.3,0.2-2,0.2c-2.2,0-3-0.9-3-3.4v-8.2h4.8v-3.2H236v-3.9h-4.5v3.9h-2.4V26.9z M215.5,27.1c1-0.3,2-0.5,3-0.6
			c2.6,0,3.8,1.1,3.8,3.6v1H220c-5.9,0-9.1,2-9.1,5.6c0,3.1,2.3,5.1,5.9,5.1c2.3,0.1,4.5-1,5.8-2.9h0.1l0.1,2.5h5.5v-3.2h-1.9v-8
			c0-4.6-2.7-6.9-8.1-6.9c-2.3,0.1-4.6,0.7-6.7,1.8v4.3h3.8L215.5,27.1z M197.3,26.9h2.5V37c0,3,2.2,4.9,5.7,4.9
			c1.3,0,2.6-0.2,3.8-0.5v-3.1c-0.7,0.1-1.3,0.2-2,0.2c-2.2,0-3-0.9-3-3.4v-8.2h4.8v-3.2h-4.8v-3.9h-4.5v3.9h-2.5L197.3,26.9z
			 M182.3,37.6v-3.1H178v6.1c2.6,0.9,5.3,1.3,8.1,1.3c6,0,9.3-2.7,9.3-7.5s-3.6-6.3-7-7.2l-2.4-0.6c-2-0.5-3-1.5-3-3.1
			s1.3-3.1,4.1-3.1c1,0,2,0.2,3,0.6v2.9h4.2v-5.5c-2.4-0.8-4.9-1.2-7.4-1.2c-5.7,0-8.9,2.4-8.9,6.7c0,3.9,1.8,5.9,6.2,7.1l2.1,0.6
			c2.9,0.8,4.1,1.8,4.1,3.6c0,2-1.4,3.1-4,3.1C185,38.2,183.6,38,182.3,37.6z M115.9,33.5h12.6c-0.1-6.5-3.2-10.2-8.6-10.2
			S111,27,111,32.7c0,2.2,0.7,9.2,9.8,9.2c2.2,0.1,4.4-0.3,6.5-1.1v-3.4c-1.7,0.7-3.6,1.1-5.4,1.1C118.3,38.5,116,36.5,115.9,33.5z
			 M143.2,41.5h8.5v-3.2h-2.1v-7.9c0-4.3-2.7-7-6.8-7c-2.2-0.1-4.4,0.9-5.7,2.8H137l-0.1-2.4h-6.3V27h2.4v11.4h-2v3.2h8.5v-3.2h-2.1
			v-7.1c0-2.6,1.4-4.1,3.9-4.1s3.9,1.5,3.9,4.1v7.1h-2L143.2,41.5z M90.2,41.5h9.5v-3.2h-2.4v-6.2h3.8c5.5,0,8.7-2.7,8.7-7.3
			s-3.3-7.3-8.7-7.3H90.2v3.2h2.4v17.5h-2.4L90.2,41.5z M218.2,38.8c-2.1,0-2.8-1.3-2.8-2.4c0-1.8,1.6-2.6,5.4-2.6h1.5V34
			C222.2,37.2,220.1,38.7,218.2,38.8L218.2,38.8z M246.9,30.6c0.2-2.6,1.7-4.3,3.9-4.3c2.4,0,3.9,1.5,3.9,4.1v0.2H246.9z
			 M115.9,30.6c0.2-2.7,1.7-4.3,3.9-4.3c2.4,0,3.8,1.5,3.8,4.1v0.2H115.9z M100.6,29h-3.3v-8.2h3.3c2.7,0,4.4,1.6,4.4,4.1
			S103.3,29,100.6,29z M166.3,41.5h8.5v-3.2h-2.1v-7.9c0-4.3-2.7-7-6.8-7c-2.3-0.1-4.4,0.9-5.7,2.8h-0.1l-0.1-2.4h-6.3v3.2h2.4v11.4
			h-2v3.2h8.5v-3.2h-2.1v-7.1c0-2.6,1.4-4.1,3.9-4.1s3.9,1.5,3.9,4.1v7.1h-2L166.3,41.5z"/>
	</g>
</g>
</svg>
